<svg xmlns="http://www.w3.org/2000/svg" xmlns:xlink="http://www.w3.org/1999/xlink" width="186.006" height="46.299" viewBox="0 0 186.006 46.299"><defs><style>.a{fill:#282461;}.b{fill:#2e3192;}.c{fill:#8d8d8d;}.d{fill:url(#a);}.e{fill:url(#b);}.f{fill:url(#c);}.g{fill:#e22b26;}</style><linearGradient id="a" y1="0.5" x2="1" y2="0.5" gradientUnits="objectBoundingBox"><stop offset="0" stop-color="#e11b22"/><stop offset="1" stop-color="#f6851f"/></linearGradient><linearGradient id="b" x1="-0.289" y1="0.646" x2="0.547" y2="0.223" gradientUnits="objectBoundingBox"><stop offset="0" stop-color="#e11b22"/><stop offset="1" stop-color="#fec00f"/></linearGradient><linearGradient id="c" x1="0.005" y1="-0.005" x2="0.488" y2="0.889" gradientUnits="objectBoundingBox"><stop offset="0" stop-color="#f37321"/><stop offset="1" stop-color="#e11b22"/></linearGradient></defs><g transform="translate(0)"><g transform="translate(22.548 0.282)"><path class="a" d="M610.965,487.285v1.842a6.621,6.621,0,0,0-2.263-1.6,7.756,7.756,0,0,0-2.868-.47,6.832,6.832,0,0,0-4.81,1.5,6.318,6.318,0,0,0-2,3.232,29.672,29.672,0,0,0,0,9.527,6.342,6.342,0,0,0,2,3.214,6.793,6.793,0,0,0,4.769,1.5,7.96,7.96,0,0,0,2.809-.442,6.007,6.007,0,0,0,2.2-1.5v1.979a4.2,4.2,0,0,1-1.032,2.893,4.076,4.076,0,0,1-3.211,1.165,5.927,5.927,0,0,1-4.129-1.5l-3.272,3.082a9.051,9.051,0,0,0,3.353,2.011,14.6,14.6,0,0,0,4.291.55A9.68,9.68,0,0,0,613.531,512a7.494,7.494,0,0,0,2.524-5.843V487.28Zm-.2,10.258v.7a3.181,3.181,0,0,1-.488,1.687c-.05.125-.1.246-.164.361a2.817,2.817,0,0,1-2.787,1.354h-.218a3.546,3.546,0,0,1-3.657-3.4v-3.375a3.546,3.546,0,0,1,3.657-3.4h.218a2.821,2.821,0,0,1,2.787,1.352c.059.115.114.237.165.363a3.192,3.192,0,0,1,.487,1.685v.675c.024.317.035.647.035,1S610.791,497.225,610.768,497.543Z" transform="translate(-564.05 -480.108)"/><path class="a" d="M375.486,492.647a4.915,4.915,0,0,0-1.252-.885,3.634,3.634,0,0,0-1.536-.282,3.415,3.415,0,0,0-2.384.923,3.457,3.457,0,0,0-1.01,2.692v11.83H364.05V487.315h5.133v1.88a6.139,6.139,0,0,1,2.222-1.485,7.737,7.737,0,0,1,3.071-.621,8.079,8.079,0,0,1,2.728.414,6.607,6.607,0,0,1,2.243,1.427Z" transform="translate(-364.05 -480.132)"/><path class="a" d="M1107.082,466.706v-11.98a3.22,3.22,0,0,0-1.01-2.636,3.7,3.7,0,0,0-2.424-.829,3.618,3.618,0,0,0-2.405.829,3.246,3.246,0,0,0-.989,2.636v11.98H1095v-26.8h5.254v8.983a7.1,7.1,0,0,1,5.05-2.03,6.771,6.771,0,0,1,5.214,1.96,7.308,7.308,0,0,1,1.818,5.195v12.69Z" transform="translate(-987.222 -439.91)"/><path class="a" d="M1379.666,492.647a4.944,4.944,0,0,0-1.253-.885,3.635,3.635,0,0,0-1.535-.282,3.41,3.41,0,0,0-2.384.923,3.462,3.462,0,0,0-1.012,2.692v11.83h-5.252V487.315h5.127v1.88a6.157,6.157,0,0,1,2.224-1.485,7.733,7.733,0,0,1,3.07-.621,8.075,8.075,0,0,1,2.728.414,6.629,6.629,0,0,1,2.244,1.427Z" transform="translate(-1220.164 -480.131)"/><path class="a" d="M1245.707,496.418a9.487,9.487,0,0,0-2.445-6.746,9.834,9.834,0,0,0-13.4.041,10.282,10.282,0,0,0-2.507,7.347q0,5.525,2.708,7.781a10.613,10.613,0,0,0,7.031,2.255,11.753,11.753,0,0,0,4.506-.737,12.07,12.07,0,0,0,3.5-2.352l-3.2-2.891a7.036,7.036,0,0,1-2.12,1.429,7.23,7.23,0,0,1-2.654.413,4.6,4.6,0,0,1-3.391-1.2,4.272,4.272,0,0,1-1.212-3.159H1245.7Zm-13.154.414v-1.579h-.021a4.845,4.845,0,0,1,.466-2.03,3.47,3.47,0,0,1,1.354-1.559,4.638,4.638,0,0,1,4.365,0,3.427,3.427,0,0,1,1.327,1.485,5.167,5.167,0,0,1,.485,2.1h-5.364Z" transform="translate(-1100.066 -480.108)"/><path class="a" d="M483.595,492.537a6.614,6.614,0,0,0-1.737-2.949,8.744,8.744,0,0,0-2.869-1.861,10.239,10.239,0,0,0-3.819-.658,10,10,0,0,0-3.819.658,8.763,8.763,0,0,0-2.849,1.9,6.647,6.647,0,0,0-1.738,2.888,21.288,21.288,0,0,0,.021,9.118,6.6,6.6,0,0,0,1.737,2.949,8.774,8.774,0,0,0,2.85,1.861,11.4,11.4,0,0,0,7.632,0,8.062,8.062,0,0,0,2.718-1.747,7.028,7.028,0,0,0,1.9-3.045,17.1,17.1,0,0,0,.485-4.586A16.877,16.877,0,0,0,483.595,492.537Zm-4.748,6.761a3.289,3.289,0,0,1-1.2,2.507c-.038.038-.069.083-.111.119a3.071,3.071,0,0,1-1.861.737,4.005,4.005,0,0,1-.482.034h-.075a3.319,3.319,0,0,1-.366-.024,3.033,3.033,0,0,1-1.864-.7c-.054-.052-.1-.106-.147-.159a3.291,3.291,0,0,1-1.2-2.507v-4.427a3.3,3.3,0,0,1,1.2-2.507c.04-.04.071-.083.112-.121a3.051,3.051,0,0,1,1.886-.737,3.765,3.765,0,0,1,.392-.027h.13a3.443,3.443,0,0,1,2.38.861c.03.026.052.056.078.084a3.279,3.279,0,0,1,1.135,2.452Z" transform="translate(-451.206 -480.116)"/><path class="a" d="M975.068,491.57a7.115,7.115,0,0,0-2.021-3.138q-1.475-1.373-4.707-1.373a7.028,7.028,0,0,0-5.254,2.064v-1.839H958v26.8h5.249v-8.944a5.979,5.979,0,0,0,2.222,1.523,8.378,8.378,0,0,0,2.869.432,7.237,7.237,0,0,0,5.133-1.769A5.828,5.828,0,0,0,975.243,502a28.13,28.13,0,0,0,.364-4.943A20,20,0,0,0,975.068,491.57Zm-4.388,7.719a3.546,3.546,0,0,1-3.657,3.4h-.215q-2.224,0-2.889-1.39a4.867,4.867,0,0,1-.253-.668,3.179,3.179,0,0,1-.3-1.343v-.148a17.318,17.318,0,0,1-.113-2.088,16.548,16.548,0,0,1,.113-2.038v-.15a3.168,3.168,0,0,1,.333-1.407,5.016,5.016,0,0,1,.239-.6q.687-1.392,2.869-1.39h.215a3.855,3.855,0,0,1,1.2.192l.04.013a3.429,3.429,0,0,1,2.417,3.2Z" transform="translate(-870.422 -480.108)"/><path class="a" d="M830.188,488.887c-.49-.121-3-.158-3.087-.167l-4.326,3.89c1.355.009,2.393,0,3.391,0a4.819,4.819,0,0,1,3.011.737,2.839,2.839,0,0,1,.908,2.344v.978h-4.972a7.99,7.99,0,0,0-5.373,1.578,5.175,5.175,0,0,0-1.82,4.1,5.844,5.844,0,0,0,1.8,4.423,7.222,7.222,0,0,0,4.956,1.7h10.664V495.4Q835.338,490.158,830.188,488.887Zm.109,17.058-2.03-1.452-3.1-.007a2.316,2.316,0,0,1-2.395-2.232h0a2.322,2.322,0,0,1,2.4-2.234H830.3Z" transform="translate(-750.997 -481.523)"/><path class="a" d="M750.514,491.73a4.453,4.453,0,0,1,.939.609l4.106-3.59a6.5,6.5,0,0,0-2.076-1.284,8.084,8.084,0,0,0-2.728-.414,7.73,7.73,0,0,0-3.071.621,6.114,6.114,0,0,0-2.222,1.485v-1.88H740.33v19.618h5.259v-11.83a3.465,3.465,0,0,1,1.01-2.693,3.413,3.413,0,0,1,2.381-.923A3.649,3.649,0,0,1,750.514,491.73Z" transform="translate(-684.848 -480.098)"/></g><path class="b" d="M823.755,504.93l-.075.072.089.08Z" transform="translate(-733.36 -495.061)"/><g transform="translate(66.848 38.123)"><path class="c" d="M666.379,703.756c-.932-.893-1.336-2.359-1.889-3.225a1.74,1.74,0,0,1,.355-.047.851.851,0,0,1,.807.482,9.745,9.745,0,0,0,1.162,2.117,9.623,9.623,0,0,0,1.05-1.917.993.993,0,0,1,.917-.687,1.969,1.969,0,0,1,.355.047c-.529.846-.988,2.347-1.9,3.225v2.442s-.861,0-.861-.458Z" transform="translate(-664.49 -699.9)"/><path class="c" d="M698.381,713.778c0,.83-.577,1.327-1.809,1.327s-1.8-.5-1.8-1.327v-1.541c0-.83.577-1.327,1.8-1.327s1.809.5,1.809,1.327Zm-.83-1.423c0-.513-.165-.814-.979-.814s-.972.295-.972.814v1.3c0,.513.165.814.972.814s.979-.295.979-.814Z" transform="translate(-690.305 -708.792)"/><path class="c" d="M726.51,713.977c0,.45.221.711.854.711a2.723,2.723,0,0,0,.854-.134V711.18s.83,0,.83.45v3.686a1.463,1.463,0,0,0-.616-.147c-.38,0-.737.165-1.18.165-.767,0-1.572-.26-1.572-1.24V711.18s.829.008.829.45Z" transform="translate(-716.657 -709.022)"/><path class="c" d="M756.31,711.734V715.1s-.83,0-.83-.458v-3.674a1.211,1.211,0,0,0,.546.147c.339,0,.647-.165,1.1-.165.553,0,1,.2,1,.687a1.147,1.147,0,0,1-.295.671c0-.466-.388-.678-.846-.678a2.426,2.426,0,0,0-.668.1Z" transform="translate(-742.063 -708.827)"/><path class="c" d="M790.26,700.83h1.485c1.218,0,2.284.332,2.284,1.794v.147c0,1.423-1.066,1.8-2.284,1.8h-.624V706.5s-.861,0-.861-.451Zm.861.663V703.9h.624c.838,0,1.423-.158,1.423-1.209,0-.981-.59-1.2-1.423-1.2Z" transform="translate(-771.715 -700.199)"/><path class="c" d="M822.489,711.734V715.1s-.829,0-.829-.458v-3.674a1.208,1.208,0,0,0,.546.147c.339,0,.647-.165,1.1-.165.555,0,1,.2,1,.687a1.149,1.149,0,0,1-.295.671c0-.466-.386-.678-.845-.678A2.446,2.446,0,0,0,822.489,711.734Z" transform="translate(-798.485 -708.827)"/><path class="c" d="M845.041,713.778c0,.83-.577,1.327-1.809,1.327s-1.8-.5-1.8-1.327v-1.541c0-.83.577-1.327,1.8-1.327s1.809.5,1.809,1.327Zm-.83-1.423c0-.513-.165-.814-.979-.814s-.972.295-.972.814v1.3c0,.513.165.814.972.814s.979-.295.979-.814Z" transform="translate(-815.34 -708.792)"/><path class="c" d="M872.35,697.877c0-.83.894-1.327,1.794-1.327.782,0,1.453.252,1.453.751a.738.738,0,0,1-.295.544c0-.426-.59-.624-1.146-.624-.529,0-.979.295-.979.807v.885h1.454s-.009.664-.49.664h-.958v3.244s-.83,0-.83-.451Z" transform="translate(-841.701 -696.55)"/><path class="c" d="M893.78,714.213c0,.56-.7.892-1.541.892-1.1,0-1.769-.5-1.769-1.327v-1.541c0-.83.576-1.327,1.643-1.327s1.612.5,1.612,1.247c0,.656-.419,1.233-1.622,1.233a1.826,1.826,0,0,1-.806-.165v.435c0,.513.268.774.933.774.758,0,1.311-.308,1.318-.823A1.093,1.093,0,0,1,893.78,714.213Zm-2.474-1.6a2.942,2.942,0,0,0,.7.111c.664,0,.894-.205.894-.562s-.214-.616-.8-.616c-.631,0-.8.295-.8.814Z" transform="translate(-857.149 -708.792)"/><path class="c" d="M918.859,710.8c.9,0,1.526.245,1.526.783a1.181,1.181,0,0,1-.27.678c0-.513-.49-.774-1.217-.774-.624,0-.854.174-.854.569,0,.83,2.537-.147,2.537,1.715,0,.758-.562,1.24-1.724,1.24-.932,0-1.612-.268-1.612-.821a1.1,1.1,0,0,1,.308-.687c.016.624.616.838,1.3.838.5,0,.877-.2.877-.609,0-.988-2.536.04-2.536-1.651C917.2,711.235,917.776,710.8,918.859,710.8Z" transform="translate(-879.938 -708.699)"/><path class="c" d="M945.591,710.8c.9,0,1.525.245,1.525.783a1.18,1.18,0,0,1-.268.678c0-.513-.49-.774-1.217-.774-.625,0-.854.174-.854.569,0,.83,2.536-.147,2.536,1.715,0,.758-.56,1.24-1.722,1.24-.932,0-1.612-.268-1.612-.821a1.1,1.1,0,0,1,.308-.687c.016.624.616.838,1.3.838.5,0,.885-.2.885-.609,0-.988-2.536.04-2.536-1.651C943.932,711.235,944.509,710.8,945.591,710.8Z" transform="translate(-902.735 -708.699)"/><path class="c" d="M972.129,701.26h.59c.094,0,.229.1.229.2v.6h-.59a.227.227,0,0,1-.238-.189Zm0,1.463c.031,0,.83,0,.83.45v3.667s-.83,0-.83-.451Z" transform="translate(-926.76 -700.565)"/><path class="c" d="M987.841,713.778c0,.83-.576,1.327-1.809,1.327s-1.8-.5-1.8-1.327v-1.541c0-.83.578-1.327,1.8-1.327s1.809.5,1.809,1.327Zm-.829-1.423c0-.513-.167-.814-.98-.814s-.972.295-.972.814v1.3c0,.513.167.814.972.814s.98-.295.98-.814Z" transform="translate(-937.084 -708.792)"/><path class="c" d="M1017.688,712.242c0-.442-.23-.711-.863-.711a2.63,2.63,0,0,0-.845.134v3.375s-.83,0-.83-.451V710.9a1.394,1.394,0,0,0,.609.147c.388,0,.737-.165,1.179-.165.767,0,1.581.261,1.581,1.24v2.921s-.829-.016-.829-.451Z" transform="translate(-963.445 -708.767)"/><path class="c" d="M1046.42,712.182c0-.348-.165-.616-.838-.616-.7,0-1.247.259-1.247.868a1.151,1.151,0,0,1-.261-.672c0-.615.806-.852,1.508-.852,1.084,0,1.668.482,1.668,1.311v2.853a1.369,1.369,0,0,0-.569-.111c-.379,0-.737.147-1.18.147-.765,0-1.532-.295-1.532-1.2C1043.964,712.4,1046.121,712.869,1046.42,712.182Zm.025.711c-.167.473-1.66.189-1.66,1.011,0,.348.261.59.83.59a1.868,1.868,0,0,0,.83-.183Z" transform="translate(-988.015 -708.792)"/><path class="c" d="M1072.6,698.21c.047,0,.829,0,.829.442v4.157c0,.45.072,1.18.562,1.18a.7.7,0,0,1-.562.254c-.569,0-.829-.546-.829-1.18Z" transform="translate(-1012.424 -697.965)"/><path class="c" d="M1101,700.83h1.485c1.217,0,2.284.332,2.284,1.794v.147c0,1.423-1.068,1.8-2.284,1.8h-.624V706.5s-.861,0-.861-.451Zm.861.663V703.9h.624c.838,0,1.423-.158,1.423-1.209,0-.981-.59-1.2-1.423-1.2Z" transform="translate(-1036.637 -700.199)"/><path class="c" d="M1133.2,704.324s-.83,0-.83-.451V698.31c.078,0,.83-.015.83.529v1.1a2.2,2.2,0,0,1-.072.6,1.5,1.5,0,0,1,1.122-.372,1.334,1.334,0,0,1,1.486,1.3v2.853s-.83-.009-.83-.451v-2.284a.7.7,0,0,0-.758-.79c-.475,0-.948.295-.948.712Z" transform="translate(-1063.381 -698.05)"/><path class="c" d="M1165.271,713.778c0,.83-.578,1.327-1.811,1.327s-1.8-.5-1.8-1.327v-1.541c0-.83.577-1.327,1.8-1.327s1.811.5,1.811,1.327Zm-.83-1.423c0-.513-.167-.814-.98-.814s-.972.295-.972.814v1.3c0,.513.167.814.972.814s.98-.295.98-.814Z" transform="translate(-1088.352 -708.792)"/><path class="c" d="M1192.536,705.76c.183,0,.83.016.83.7v.295h1.622s0,.664-.49.664h-1.138v1.738c0,.546.174.885.783.885.506,0,.972-.245.972-.83a1.049,1.049,0,0,1,.276.641c0,.513-.552.852-1.35.852-.941,0-1.51-.489-1.51-1.327Z" transform="translate(-1114.67 -704.402)"/><path class="c" d="M1218.691,713.778c0,.83-.576,1.327-1.809,1.327s-1.8-.5-1.8-1.327v-1.541c0-.83.576-1.327,1.8-1.327s1.809.5,1.809,1.327Zm-.83-1.423c0-.513-.165-.814-.979-.814s-.972.295-.972.814v1.3c0,.513.165.814.972.814s.979-.295.979-.814Z" transform="translate(-1133.896 -708.792)"/><path class="c" d="M1247.862,712.5c0,.837-.576,1.336-1.644,1.336a2.016,2.016,0,0,1-1.011-.23,2.271,2.271,0,0,0-.054.364c0,.4.332.442.932.442h.261c.79,0,1.668.016,1.668,1.082,0,.814-.562,1.376-1.794,1.376-.987,0-1.666-.308-1.666-.846a1.073,1.073,0,0,1,.236-.616c.04.59.616.83,1.392.83s1.011-.295,1.011-.7c0-.434-.357-.482-.87-.482h-.388c-.758,0-1.475-.078-1.475-.892a1.235,1.235,0,0,1,.4-.814,1.31,1.31,0,0,1-.295-.854v-.412c0-.892.737-1.224,1.493-1.224.443,0,.814.158,1.18.158a1.539,1.539,0,0,0,.616-.147Zm-.821-.854a2.187,2.187,0,0,0-.83-.165c-.623,0-.814.212-.814.727v.174c0,.521.158.821.822.821s.823-.295.823-.821Z" transform="translate(-1158.943 -708.75)"/><path class="c" d="M1274.26,711.734V715.1s-.83,0-.83-.458v-3.674a1.216,1.216,0,0,0,.545.147c.341,0,.649-.165,1.1-.165.553,0,1,.2,1,.687a1.148,1.148,0,0,1-.295.671c0-.466-.388-.678-.845-.678A2.433,2.433,0,0,0,1274.26,711.734Z" transform="translate(-1183.642 -708.827)"/><path class="c" d="M1295.212,712.182c0-.348-.165-.616-.838-.616-.7,0-1.248.259-1.248.868a1.16,1.16,0,0,1-.261-.672c0-.615.806-.852,1.509-.852,1.083,0,1.668.482,1.668,1.311v2.853a1.373,1.373,0,0,0-.569-.111c-.379,0-.737.147-1.179.147-.767,0-1.534-.295-1.534-1.2C1292.754,712.4,1294.911,712.869,1295.212,712.182Zm.024.711c-.165.473-1.659.189-1.659,1.011,0,.348.261.59.828.59a1.863,1.863,0,0,0,.831-.183Z" transform="translate(-1200.121 -708.792)"/><path class="c" d="M1322.49,716.39v.528c-.024,0-.83.024-.83-.538v-5.507a1.217,1.217,0,0,0,.522.125c.372,0,.719-.147,1.122-.147,1.106,0,1.722.473,1.722,1.311v1.581a1.357,1.357,0,0,1-1.486,1.3,1.493,1.493,0,0,1-1.121-.371,2.13,2.13,0,0,1,.071.59Zm0-2.679c0,.419.473.712.948.712a.7.7,0,0,0,.758-.79v-1.343c0-.538-.212-.8-.948-.8a1.9,1.9,0,0,0-.758.136Z" transform="translate(-1224.76 -708.741)"/><path class="c" d="M1351.75,704.324s-.83,0-.83-.451V698.31c.078,0,.83-.015.83.529v1.1a2.194,2.194,0,0,1-.073.6,1.5,1.5,0,0,1,1.122-.372,1.334,1.334,0,0,1,1.486,1.3v2.853s-.83-.009-.83-.451v-2.284a.7.7,0,0,0-.758-.79c-.475,0-.948.295-.948.712Z" transform="translate(-1249.706 -698.05)"/><path class="c" d="M1383.44,714.213c0,.56-.7.892-1.541.892-1.1,0-1.769-.5-1.769-1.327v-1.541c0-.83.576-1.327,1.642-1.327s1.613.5,1.613,1.247c0,.656-.421,1.233-1.622,1.233a1.826,1.826,0,0,1-.806-.165v.435c0,.513.27.774.933.774.758,0,1.311-.308,1.32-.823A1.1,1.1,0,0,1,1383.44,714.213Zm-2.475-1.6a2.941,2.941,0,0,0,.7.111c.664,0,.894-.205.894-.562s-.214-.616-.8-.616c-.633,0-.8.295-.8.814Z" transform="translate(-1274.609 -708.792)"/><path class="c" d="M1409.3,711.734V715.1s-.83,0-.83-.458v-3.674a1.212,1.212,0,0,0,.546.147c.339,0,.647-.165,1.1-.165.553,0,1,.2,1,.687a1.149,1.149,0,0,1-.295.671c0-.466-.387-.678-.846-.678a2.431,2.431,0,0,0-.668.1Z" transform="translate(-1298.77 -708.827)"/></g><path class="d" d="M1250.525,487.06a8.737,8.737,0,0,0-6.668,2.654l-.087.1,3.369,3.123a3.4,3.4,0,0,1,1.2-1.265,4.637,4.637,0,0,1,4.364,0,3.432,3.432,0,0,1,1.328,1.485,5.171,5.171,0,0,1,.485,2.1h-4.88l3.608,3.344h6.445v-2.184a9.487,9.487,0,0,0-2.445-6.746A8.736,8.736,0,0,0,1250.525,487.06Z" transform="translate(-1091.508 -479.826)"/><path class="e" d="M229.484,440.428A9.907,9.907,0,0,0,222.45,438H211.13v27.353l5.7-4.233v-6.178h5.618a9.887,9.887,0,0,0,7.014-2.44,8.277,8.277,0,0,0,.021-12.073Zm-3.032,6.143a3.829,3.829,0,0,1-3.963,3.686h-2.723l-2.949,2.8V442.737h5.669a4.141,4.141,0,0,1,2.369.737c.038.028.078.053.117.083s.088.071.133.106.088.068.131.106l.034.034c.04.037.077.077.115.115s.093.09.136.139a3.515,3.515,0,0,1,.929,2.369Z" transform="translate(-211.13 -438)"/><path class="f" d="M216.832,483.346l-5.7-19.276v23.509Z" transform="translate(-211.13 -460.226)"/><path class="g" d="M245.97,525.658l-4.838-4.528h0l-.087.083-4.855,4.6h7.625A14.585,14.585,0,0,0,245.97,525.658Z" transform="translate(-232.495 -508.872)"/><path class="a" d="M229.484,440.428A9.907,9.907,0,0,0,222.45,438H211.13v3.834l5.69,5.376v-4.474h5.669a4.142,4.142,0,0,1,2.37.737c.038.028.078.053.116.083s.089.071.133.106.088.068.131.106l.034.034c.04.037.077.077.115.115s.094.09.136.139a3.515,3.515,0,0,1,.929,2.369v.147a3.829,3.829,0,0,1-3.963,3.686h-2.723l4.839,4.528a9.377,9.377,0,0,0,4.866-2.284,8.27,8.27,0,0,0,.013-12.075Z" transform="translate(-211.13 -438)"/></g></svg>